HIERARCHY
ROOT Pelvis
{
	OFFSET 0.000000 0.941512 0.000000
	CHANNELS 6 Xposition Yposition Zposition Zrotation Yrotation Xrotation 
	JOINT Pelvis_L_Hip
	{
		OFFSET 0.000000 0.000000 0.000000
		CHANNELS 3 Zrotation Yrotation Xrotation
		JOINT L_Hip
		{
			OFFSET 0.062321 -0.080322 -0.016990
			CHANNELS 3 Zrotation Yrotation Xrotation
			JOINT L_Knee
			{
				OFFSET 0.093051 -0.381305 -0.029784
				CHANNELS 3 Zrotation Yrotation Xrotation
				JOINT L_Ankle
				{
					OFFSET -0.010371 -0.431000 -0.033614
					CHANNELS 3 Zrotation Yrotation Xrotation
					End Site #name: L_Foot
					{
						OFFSET 0.069299 -0.038670 0.119418
					}
				}
			}
		}
	}
	JOINT Pelvis_R_Hip
	{
		OFFSET 0.000000 0.000000 0.000000
		CHANNELS 3 Zrotation Yrotation Xrotation
		JOINT R_Hip
		{
			OFFSET -0.055334 -0.094904 -0.002373
			CHANNELS 3 Zrotation Yrotation Xrotation
			JOINT R_Knee
			{
				OFFSET -0.064207 -0.384370 -0.019592
				CHANNELS 3 Zrotation Yrotation Xrotation
				JOINT R_Ankle
				{
					OFFSET 0.025418 -0.419734 -0.065953
					CHANNELS 3 Zrotation Yrotation Xrotation
					End Site #name: R_Foot
					{
						OFFSET -0.057233 -0.039888 0.132134
					}
				}
			}
		}
	}
	JOINT Pelvis_Spine1
	{
		OFFSET 0.000000 0.000000 0.000000
		CHANNELS 3 Zrotation Yrotation Xrotation
		JOINT Spine1
		{
			OFFSET -0.005562 0.124093 -0.043360
			CHANNELS 3 Zrotation Yrotation Xrotation
			JOINT Spine2
			{
				OFFSET 0.012244 0.139499 0.029894
				CHANNELS 3 Zrotation Yrotation Xrotation
				JOINT Spine3
				{
					OFFSET -0.002556 0.056561 0.009225
					CHANNELS 3 Zrotation Yrotation Xrotation
					JOINT Spine3_Neck
					{
						OFFSET 0.000000 0.000000 0.000000
						CHANNELS 3 Zrotation Yrotation Xrotation
						JOINT Neck
						{
							OFFSET -0.005205 0.217920 -0.024551
							CHANNELS 3 Zrotation Yrotation Xrotation
							End Site #name: Head
							{
								OFFSET 0.002365 0.091850 0.046637
							}
						}
					}
					JOINT Spine3_L_Collar
					{
						OFFSET 0.000000 0.000000 0.000000
						CHANNELS 3 Zrotation Yrotation Xrotation
						JOINT L_Collar
						{
							OFFSET 0.072225 0.116603 -0.009480
							CHANNELS 3 Zrotation Yrotation Xrotation
							JOINT L_Shoulder
							{
								OFFSET 0.115937 -0.058643 -0.021018
								CHANNELS 3 Zrotation Yrotation Xrotation
								JOINT L_Elbow
								{
									OFFSET 0.021994 -0.254722 -0.024492
									CHANNELS 3 Zrotation Yrotation Xrotation
									End Site #name: L_Wrist
									{
										OFFSET 0.048810 -0.240214 0.103329
									}
								}
							}
						}
					}
					JOINT Spine3_R_Collar
					{
						OFFSET 0.000000 0.000000 0.000000
						CHANNELS 3 Zrotation Yrotation Xrotation
						JOINT R_Collar
						{
							OFFSET -0.073372 0.120704 -0.024611
							CHANNELS 3 Zrotation Yrotation Xrotation
							JOINT R_Shoulder
							{
								OFFSET -0.108089 -0.054969 -0.020504
								CHANNELS 3 Zrotation Yrotation Xrotation
								JOINT R_Elbow
								{
									OFFSET -0.033684 -0.260739 0.009889
									CHANNELS 3 Zrotation Yrotation Xrotation
									End Site #name: R_Wrist
									{
										OFFSET -0.067980 -0.232763 0.118463
									}
								}
							}
						}
					}
				}
			}
		}
	}
}
MOTION
Frames: 5
Frame Time: 0.041667
0.000000 0.950367 0.000000 -6.276848 -8.260625 4.004489 0.000000 0.000000 0.000000 6.618617 -4.850487 -26.212260 2.436485 -1.085464 33.925801 -0.633841 -10.660875 -4.347446 0.000000 0.000000 0.000000 -0.396537 0.767985 -4.541538 -3.446948 4.237650 30.434100 10.652526 15.767490 10.277518 0.000000 0.000000 0.000000 0.372508 -0.295656 2.584339 -3.627844 0.428084 -2.098154 1.676544 4.882773 5.009340 0.000000 0.000000 0.000000 -10.409962 5.807170 4.019759 0.000000 0.000000 0.000000 33.691800 -6.047247 1.222503 -3.858298 -6.305936 -55.421963 21.432404 13.871545 -97.942545 0.000000 0.000000 0.000000 -44.555822 17.356574 -9.036779 10.900580 4.114210 -16.747493 -40.220857 -41.574249 -81.608377 
-0.007175 0.929728 -0.020954 -6.323101 -10.567702 4.054654 0.000000 0.000000 0.000000 4.514547 -4.885969 -24.939981 5.321832 -2.040128 35.184418 3.567380 -2.801456 -8.312986 0.000000 0.000000 0.000000 1.291970 0.756549 -4.736670 -5.030845 5.928320 34.466201 8.755818 14.654237 7.629511 0.000000 0.000000 0.000000 0.294334 -0.390703 4.293612 -2.107897 0.107184 -3.945853 1.749368 2.763398 6.717618 0.000000 0.000000 0.000000 -7.208129 3.849968 0.790363 0.000000 0.000000 0.000000 35.285132 -10.572048 -4.009357 9.635860 -0.813410 -55.477305 26.780297 25.656393 -90.502233 0.000000 0.000000 0.000000 -42.608610 16.018041 -6.313159 2.341170 3.231301 -21.777022 -48.767717 -48.406914 -69.639384 
-0.020695 0.909009 -0.044435 -5.378843 -12.057337 3.046192 0.000000 0.000000 0.000000 5.602112 -5.122592 -28.128968 4.992586 -1.864927 41.349762 3.873557 -3.135011 -9.065372 0.000000 0.000000 0.000000 2.782293 0.446162 -3.310040 -5.979246 7.102343 36.846099 4.124784 11.498522 1.329334 0.000000 0.000000 0.000000 -1.804637 0.054515 7.112578 -1.128471 -0.049172 -4.791233 2.063581 0.888500 6.728758 0.000000 0.000000 0.000000 -4.452670 2.257557 -1.550004 0.000000 0.000000 0.000000 35.151412 -12.764985 -6.888369 13.163802 0.417492 -50.946142 28.642042 28.053635 -86.712768 0.000000 0.000000 0.000000 -40.101660 14.566726 -3.986394 -0.544935 2.830085 -23.917121 -51.223002 -49.440394 -65.714449 
-0.032374 0.899880 -0.063321 -5.293621 -13.866090 2.359211 0.000000 0.000000 0.000000 8.898559 -4.732405 -31.613171 2.920675 -0.573802 47.659748 1.738317 -6.162616 -6.501909 0.000000 0.000000 0.000000 1.214199 0.111441 -1.123042 -3.909610 5.485229 33.195314 0.562111 11.967061 -5.138773 0.000000 0.000000 0.000000 0.143582 -0.551194 8.254758 -2.223497 0.116192 -4.139131 1.014044 0.649479 6.792132 0.000000 0.000000 0.000000 -4.156799 2.073427 -2.088023 0.000000 0.000000 0.000000 31.393482 -10.997533 -5.473459 7.910106 -1.394021 -47.379280 25.863121 23.213447 -89.223164 0.000000 0.000000 0.000000 -39.419049 14.280586 -3.299763 2.772968 3.100434 -20.543127 -46.291402 -47.468689 -73.517494 
-0.040739 0.911874 -0.077328 -5.260853 -16.425880 2.855820 0.000000 0.000000 0.000000 11.434772 -4.191535 -35.922745 1.920256 0.597179 53.264791 -4.489978 -9.008904 2.889699 0.000000 0.000000 0.000000 -1.190719 0.318251 -1.570872 -1.675736 4.095166 30.024312 2.242203 15.308584 -3.610630 0.000000 0.000000 0.000000 1.677074 -0.975999 8.474316 -3.105406 0.281295 -3.263267 0.184734 0.849179 6.299132 0.000000 0.000000 0.000000 -4.961093 2.468617 -2.123566 0.000000 0.000000 0.000000 27.610254 -7.242446 -2.520451 4.329323 -2.332188 -43.065469 23.370736 18.650332 -93.199018 0.000000 0.000000 0.000000 -37.924753 13.770666 -2.424509 4.934220 2.986147 -17.230817 -41.266741 -44.281947 -81.524622 
